<svg width="1440" height="880" viewBox="0 0 1440 880" fill="none" xmlns="http://www.w3.org/2000/svg">
  <rect width="1440" height="880" rx="32" fill="#0B0F1A"/>
  <rect x="70" y="70" width="1300" height="740" rx="34" fill="#121826" stroke="#273244"/>
  <text x="110" y="138" fill="#34D399" font-family="Arial, sans-serif" font-size="18" font-weight="700">Telegram-беседа</text>
  <text x="110" y="188" fill="#FFFFFF" font-family="Arial, sans-serif" font-size="40" font-weight="700">Добавь бота в чат клиента</text>
  <rect x="110" y="280" width="520" height="360" rx="30" fill="#0F1524" stroke="#273244"/>
  <text x="150" y="342" fill="#FFFFFF" font-family="Arial, sans-serif" font-size="26" font-weight="700">Ссылка для беседы</text>
  <rect x="150" y="400" width="420" height="70" rx="20" fill="#172033"/>
  <text x="178" y="442" fill="#CBD5E1" font-family="Arial, sans-serif" font-size="17">t.me/stat_rivnos_bot?startgroup=...</text>
  <rect x="150" y="520" width="240" height="56" rx="18" fill="#10B981"/>
  <text x="196" y="556" fill="#07120F" font-family="Arial, sans-serif" font-size="17" font-weight="700">Скопировать</text>
  <path d="M660 460H780" stroke="#475569" stroke-width="4" stroke-linecap="round"/>
  <path d="M780 460L760 442M780 460L760 478" stroke="#475569" stroke-width="4" stroke-linecap="round"/>
  <rect x="820" y="280" width="430" height="360" rx="30" fill="#0F1524" stroke="#273244"/>
  <circle cx="890" cy="360" r="36" fill="#38BDF8"/>
  <text x="878" y="372" fill="#07120F" font-family="Arial, sans-serif" font-size="26" font-weight="700">T</text>
  <text x="950" y="352" fill="#FFFFFF" font-family="Arial, sans-serif" font-size="24" font-weight="700">Беседа клиента</text>
  <text x="950" y="390" fill="#94A3B8" font-family="Arial, sans-serif" font-size="17">Клиент, команда и бот</text>
  <rect x="860" y="470" width="320" height="58" rx="18" fill="#063B2E"/>
  <text x="898" y="506" fill="#A7F3D0" font-family="Arial, sans-serif" font-size="17" font-weight="700">Бот может писать отчёты</text>
</svg>
