<svg width="1440" height="880" viewBox="0 0 1440 880" fill="none" xmlns="http://www.w3.org/2000/svg">
  <rect width="1440" height="880" rx="32" fill="#0B0F1A"/>
  <rect x="58" y="58" width="1324" height="764" rx="34" fill="#121826" stroke="#273244"/>
  <text x="98" y="124" fill="#34D399" font-family="Arial, sans-serif" font-size="18" font-weight="700">Avito-отчёты</text>
  <text x="98" y="174" fill="#FFFFFF" font-family="Arial, sans-serif" font-size="40" font-weight="700">Автоматический отчёт в беседу клиента</text>
  <text x="98" y="216" fill="#94A3B8" font-family="Arial, sans-serif" font-size="19">RIVN OS собирает данные Avito, считает показатели и отправляет понятный отчёт в Telegram.</text>
  <rect x="98" y="320" width="300" height="180" rx="28" fill="#0F1524" stroke="#273244"/>
  <text x="138" y="384" fill="#FFFFFF" font-family="Arial, sans-serif" font-size="26" font-weight="700">Проект</text>
  <text x="138" y="426" fill="#94A3B8" font-family="Arial, sans-serif" font-size="17">Клиент и рабочее направление</text>
  <path d="M420 410H535" stroke="#475569" stroke-width="4" stroke-linecap="round"/>
  <path d="M535 410L515 392M535 410L515 428" stroke="#475569" stroke-width="4" stroke-linecap="round"/>
  <rect x="565" y="280" width="310" height="260" rx="28" fill="#0F1524" stroke="#34D399" stroke-width="2"/>
  <text x="605" y="348" fill="#FFFFFF" font-family="Arial, sans-serif" font-size="26" font-weight="700">Avito API</text>
  <text x="605" y="392" fill="#94A3B8" font-family="Arial, sans-serif" font-size="17">Расходы</text>
  <text x="605" y="426" fill="#94A3B8" font-family="Arial, sans-serif" font-size="17">Просмотры</text>
  <text x="605" y="460" fill="#94A3B8" font-family="Arial, sans-serif" font-size="17">Контакты</text>
  <path d="M900 410H1015" stroke="#475569" stroke-width="4" stroke-linecap="round"/>
  <path d="M1015 410L995 392M1015 410L995 428" stroke="#475569" stroke-width="4" stroke-linecap="round"/>
  <rect x="1045" y="320" width="300" height="180" rx="28" fill="#0F1524" stroke="#273244"/>
  <text x="1085" y="384" fill="#FFFFFF" font-family="Arial, sans-serif" font-size="26" font-weight="700">Telegram</text>
  <text x="1085" y="426" fill="#94A3B8" font-family="Arial, sans-serif" font-size="17">Отчёт у клиента и команды</text>
  <rect x="344" y="620" width="752" height="76" rx="24" fill="#063B2E"/>
  <text x="404" y="667" fill="#A7F3D0" font-family="Arial, sans-serif" font-size="22" font-weight="700">Итог: меньше ручной рутины и больше прозрачности для клиента</text>
</svg>
