<svg width="1440" height="880" viewBox="0 0 1440 880" fill="none" xmlns="http://www.w3.org/2000/svg">
  <rect width="1440" height="880" rx="32" fill="#0B0F1A"/>
  <rect x="64" y="64" width="1312" height="752" rx="34" fill="#121826" stroke="#273244"/>
  <text x="104" y="132" fill="#34D399" font-family="Arial, sans-serif" font-size="18" font-weight="700">Подключение проекта</text>
  <text x="104" y="182" fill="#FFFFFF" font-family="Arial, sans-serif" font-size="40" font-weight="700">Выбери проект и добавь Avito-аккаунты</text>
  <rect x="104" y="270" width="560" height="92" rx="24" fill="#0F1524" stroke="#273244"/>
  <text x="140" y="306" fill="#94A3B8" font-family="Arial, sans-serif" font-size="16">Проект</text>
  <text x="140" y="340" fill="#FFFFFF" font-family="Arial, sans-serif" font-size="22" font-weight="700">FOR - Авито</text>
  <rect x="104" y="420" width="1232" height="250" rx="30" fill="#0F1524" stroke="#273244"/>
  <text x="144" y="482" fill="#FFFFFF" font-family="Arial, sans-serif" font-size="26" font-weight="700">Avito-аккаунт</text>
  <rect x="144" y="530" width="320" height="62" rx="18" fill="#172033"/>
  <text x="170" y="568" fill="#CBD5E1" font-family="Arial, sans-serif" font-size="17">Название аккаунта</text>
  <rect x="500" y="530" width="240" height="62" rx="18" fill="#172033"/>
  <text x="526" y="568" fill="#CBD5E1" font-family="Arial, sans-serif" font-size="17">user_id</text>
  <rect x="776" y="530" width="240" height="62" rx="18" fill="#172033"/>
  <text x="802" y="568" fill="#CBD5E1" font-family="Arial, sans-serif" font-size="17">client_id</text>
  <rect x="1052" y="530" width="240" height="62" rx="18" fill="#172033"/>
  <text x="1078" y="568" fill="#CBD5E1" font-family="Arial, sans-serif" font-size="17">client_secret</text>
  <rect x="1030" y="704" width="306" height="58" rx="20" fill="#10B981"/>
  <text x="1114" y="740" fill="#07120F" font-family="Arial, sans-serif" font-size="18" font-weight="700">Сохранить</text>
</svg>
