<svg width="1440" height="880" viewBox="0 0 1440 880" fill="none" xmlns="http://www.w3.org/2000/svg">
  <rect width="1440" height="880" rx="32" fill="#0B0F1A"/>
  <rect x="42" y="42" width="1356" height="796" rx="32" fill="#121826" stroke="#273244"/>
  <text x="86" y="102" fill="#34D399" font-family="Arial, sans-serif" font-size="18" font-weight="700">Настройки CRM</text>
  <text x="86" y="148" fill="#FFFFFF" font-family="Arial, sans-serif" font-size="38" font-weight="700">Этапы, распределение и интеграции</text>
  <rect x="86" y="196" width="250" height="58" rx="22" fill="#7C3AED"/>
  <text x="146" y="232" fill="#FFFFFF" font-family="Arial, sans-serif" font-size="18" font-weight="700">Этапы</text>
  <rect x="352" y="196" width="250" height="58" rx="22" fill="#1A2232" stroke="#2B364A"/>
  <text x="410" y="232" fill="#CBD5E1" font-family="Arial, sans-serif" font-size="18" font-weight="700">Распределение</text>
  <rect x="618" y="196" width="250" height="58" rx="22" fill="#1A2232" stroke="#2B364A"/>
  <text x="690" y="232" fill="#CBD5E1" font-family="Arial, sans-serif" font-size="18" font-weight="700">Интеграции</text>
  <rect x="86" y="308" width="396" height="410" rx="26" fill="#0F1524" stroke="#273244"/>
  <text x="122" y="358" fill="#FFFFFF" font-family="Arial, sans-serif" font-size="24" font-weight="700">Воронка заявок</text>
  <text x="122" y="394" fill="#94A3B8" font-family="Arial, sans-serif" font-size="17">Этапы можно адаптировать под процесс продаж</text>
  <rect x="122" y="436" width="300" height="48" rx="16" fill="#172033"/><text x="146" y="467" fill="#FFFFFF" font-family="Arial, sans-serif" font-size="17">Заявка получена</text>
  <rect x="122" y="498" width="300" height="48" rx="16" fill="#172033"/><text x="146" y="529" fill="#FFFFFF" font-family="Arial, sans-serif" font-size="17">КП отправлено</text>
  <rect x="122" y="560" width="300" height="48" rx="16" fill="#172033"/><text x="146" y="591" fill="#FFFFFF" font-family="Arial, sans-serif" font-size="17">Переговоры</text>
  <rect x="122" y="622" width="300" height="48" rx="16" fill="#064E3B"/><text x="146" y="653" fill="#D1FAE5" font-family="Arial, sans-serif" font-size="17">Проект оплачен</text>
  <rect x="522" y="308" width="396" height="410" rx="26" fill="#0F1524" stroke="#273244"/>
  <text x="558" y="358" fill="#FFFFFF" font-family="Arial, sans-serif" font-size="24" font-weight="700">Распределение</text>
  <text x="558" y="394" fill="#94A3B8" font-family="Arial, sans-serif" font-size="17">Настрой, кто получает новые заявки</text>
  <rect x="558" y="438" width="300" height="78" rx="20" fill="#172033" stroke="#2B364A"/>
  <text x="586" y="470" fill="#FFFFFF" font-family="Arial, sans-serif" font-size="18" font-weight="700">Равномерно</text>
  <text x="586" y="496" fill="#94A3B8" font-family="Arial, sans-serif" font-size="15">Заявки делятся между менеджерами</text>
  <rect x="558" y="536" width="300" height="78" rx="20" fill="#172033" stroke="#2B364A"/>
  <text x="586" y="568" fill="#FFFFFF" font-family="Arial, sans-serif" font-size="18" font-weight="700">По источникам</text>
  <text x="586" y="594" fill="#94A3B8" font-family="Arial, sans-serif" font-size="15">Avito, Tilda, Telegram, Яндекс</text>
  <rect x="958" y="308" width="396" height="410" rx="26" fill="#0F1524" stroke="#273244"/>
  <text x="994" y="358" fill="#FFFFFF" font-family="Arial, sans-serif" font-size="24" font-weight="700">Интеграции</text>
  <text x="994" y="394" fill="#94A3B8" font-family="Arial, sans-serif" font-size="17">Подключение каналов заявок</text>
  <circle cx="1024" cy="464" r="18" fill="#22C55E"/><text x="1058" y="470" fill="#FFFFFF" font-family="Arial, sans-serif" font-size="18">Avito подключен</text>
  <circle cx="1024" cy="526" r="18" fill="#EF4444"/><text x="1058" y="532" fill="#FFFFFF" font-family="Arial, sans-serif" font-size="18">Tilda не подключена</text>
  <circle cx="1024" cy="588" r="18" fill="#EF4444"/><text x="1058" y="594" fill="#FFFFFF" font-family="Arial, sans-serif" font-size="18">Telegram не подключен</text>
</svg>
