<svg width="1440" height="880" viewBox="0 0 1440 880" fill="none" xmlns="http://www.w3.org/2000/svg">
  <rect width="1440" height="880" rx="32" fill="#0B0F1A"/>
  <rect x="48" y="48" width="1344" height="784" rx="34" fill="#121826" stroke="#273244"/>
  <text x="88" y="112" fill="#34D399" font-family="Arial, sans-serif" font-size="18" font-weight="700">Все задачи</text>
  <text x="88" y="160" fill="#FFFFFF" font-family="Arial, sans-serif" font-size="38" font-weight="700">Командная доска задач</text>
  <text x="88" y="202" fill="#94A3B8" font-family="Arial, sans-serif" font-size="18">Задачи двигаются по статусам и помогают видеть реальную нагрузку команды.</text>
  <rect x="88" y="270" width="380" height="470" rx="28" fill="#0F1524" stroke="#273244"/>
  <text x="124" y="326" fill="#38BDF8" font-family="Arial, sans-serif" font-size="24" font-weight="700">К работе</text>
  <rect x="124" y="370" width="308" height="100" rx="20" fill="#172033"/>
  <text x="150" y="410" fill="#FFFFFF" font-family="Arial, sans-serif" font-size="18" font-weight="700">Собрать вводные</text>
  <text x="150" y="444" fill="#94A3B8" font-family="Arial, sans-serif" font-size="15">Дедлайн: сегодня</text>
  <rect x="530" y="270" width="380" height="470" rx="28" fill="#0F1524" stroke="#273244"/>
  <text x="566" y="326" fill="#A78BFA" font-family="Arial, sans-serif" font-size="24" font-weight="700">В работе</text>
  <rect x="566" y="370" width="308" height="100" rx="20" fill="#172033"/>
  <text x="592" y="410" fill="#FFFFFF" font-family="Arial, sans-serif" font-size="18" font-weight="700">Запустить кампанию</text>
  <text x="592" y="444" fill="#94A3B8" font-family="Arial, sans-serif" font-size="15">Исполнитель: менеджер</text>
  <rect x="972" y="270" width="380" height="470" rx="28" fill="#0F1524" stroke="#273244"/>
  <text x="1008" y="326" fill="#34D399" font-family="Arial, sans-serif" font-size="24" font-weight="700">Готово</text>
  <rect x="1008" y="370" width="308" height="100" rx="20" fill="#172033"/>
  <text x="1034" y="410" fill="#FFFFFF" font-family="Arial, sans-serif" font-size="18" font-weight="700">Отправить отчёт</text>
  <text x="1034" y="444" fill="#94A3B8" font-family="Arial, sans-serif" font-size="15">Закрыто сегодня</text>
</svg>
